<svg id="Capa_1" enable-background="new 0 0 512.096 512.096" height="512" viewBox="0 0 512.096 512.096" width="512" xmlns="http://www.w3.org/2000/svg"><g><g><g><g><path d="m134.932 171.324c-1.67 1.667-4.409 1.628-6.005-.11-35.197-38.324-34.2-97.889 2.991-135.01s96.872-38.116 135.27-2.986c1.741 1.593 1.781 4.326.111 5.994z" fill="#ffe07d"/></g><path d="m267.188 33.218c-22.628-20.703-52.647-28.846-81.099-24.457 18.517 2.847 36.374 10.985 51.099 24.457 1.741 1.593 1.781 4.326.111 5.994l-118.73 118.501c3.015 4.718 6.45 9.246 10.358 13.5 1.596 1.738 4.335 1.777 6.005.11l132.366-132.111c1.671-1.668 1.631-4.401-.11-5.994z" fill="#ffd064"/></g><path d="m356.604 497.022-43.655-21.939c-3.716-1.867-6.061-5.67-6.061-9.829v-101.785c0-8.077-6.207-15.027-14.275-15.407-8.614-.406-15.725 6.458-15.725 14.983v102.209c0 4.158-2.345 7.961-6.061 9.829l-43.655 21.939c-3.767 1.893-2.42 7.574 1.796 7.574h125.838c4.219 0 5.566-5.68 1.798-7.574z" fill="#dceafc"/><path d="m390.797 104.891 2.968-8.686c1.098-3.212-1.29-6.551-4.684-6.551h-196.614c-3.386 0-5.773 3.323-4.69 6.532l4.085 12.112c11.645 34.528 8.977 72.055-6.357 105.111-6.845 14.757-10.664 31.182-10.664 48.493 0 64.144 52.404 116.144 117.048 116.144s117.048-51.999 117.048-116.144c0-17.782-4.029-34.629-11.229-49.694-16.073-33.628-18.964-72.048-6.911-107.317z" fill="#ecf5ff"/><path d="m397.708 212.208c-16.073-33.628-18.964-72.048-6.911-107.317l2.968-8.686c1.098-3.212-1.29-6.551-4.684-6.551h-30c3.394 0 5.782 3.339 4.684 6.551l-2.968 8.686c-12.053 35.269-9.162 73.689 6.911 107.317 7.2 15.064 11.229 31.912 11.229 49.694 0 59.102-44.489 107.891-102.048 115.198 4.911.624 9.918.946 15 .946 64.644 0 117.048-51.999 117.048-116.144 0-17.782-4.029-34.629-11.229-49.694z" fill="#dceafc"/><path d="m353.416 155.095c-.081-2.605-2.149-4.69-4.751-4.834-5.786-.32-11.918-.16-18.309.695-24.77 3.33-34.55 14.57-55.88 19.6-10.179 2.404-23.658 3.557-40.796-.102-2.859-.611-5.626 1.338-6.005 4.237-2.288 17.495-7.285 34.793-14.959 51.345-5.22 11.27-7.88 23.33-7.88 35.87 0 47.5 39.05 86.14 87.05 86.14s87.05-38.64 87.05-86.14c0-12.88-2.79-25.24-8.3-36.76-10.72-22.409-16.479-46.218-17.22-70.051z" fill="#ffe07d"/><g><path d="m239.59 171.549c-1.921-.304-3.887-.663-5.909-1.095-2.146-.458-4.239.524-5.311 2.269 4.061-.157 7.797-.58 11.22-1.174z" fill="#f7e782"/><path d="m370.637 225.146c-10.72-22.409-16.479-46.218-17.22-70.051-.081-2.605-2.149-4.69-4.751-4.834-5.786-.32-11.918-.16-18.309.695-2.802.377-5.405.859-7.862 1.418.55.773.89 1.705.922 2.721.74 23.833 6.5 47.642 17.22 70.051 5.51 11.52 8.3 23.88 8.3 36.76 0 42.439-31.174 77.802-72.05 84.856 4.875.841 9.886 1.284 15 1.284 48 0 87.05-38.64 87.05-86.14 0-12.879-2.79-25.24-8.3-36.76z" fill="#ffd064"/></g></g><path d="m416.437 261.902c0-18.514-4.024-36.322-11.962-52.928-15.537-32.507-17.875-68.606-6.583-101.648 2.313-6.769 5.954-13.47 1.315-19.957-2.335-3.265-6.126-5.214-10.143-5.214h-62.113l4.99-24.268c.769-3.738 2.931-6.976 6.087-9.119l51.514-34.966c3.427-2.326 4.32-6.99 1.994-10.417-2.326-3.427-6.99-4.32-10.417-1.994l-51.515 34.966c-6.408 4.35-10.795 10.923-12.355 18.509l-5.611 27.289h-76.749l37.695-37.628c2.25-2.236 3.501-5.339 3.435-8.515-.066-3.165-1.442-6.202-3.77-8.329-41.667-38.118-105.635-36.706-145.631 3.215-.003.003-.005.006-.008.008-.001.001-.001.001-.002.002s-.002.002-.003.003c-39.992 39.93-41.4 103.784-3.184 145.398 2.132 2.305 5.162 3.666 8.311 3.731.081.002.161.002.242.002 3.075 0 6.071-1.231 8.261-3.409l49.001-48.909c5.28 27.417 1.7 56.152-10.535 82.527-2.894 6.239-5.273 12.759-7.073 19.381-1.086 3.997 1.274 8.118 5.271 9.204 3.998 1.084 8.118-1.274 9.204-5.271 1.578-5.808 3.666-11.528 6.205-17.002 15.644-33.723 18.522-70.979 8.281-105.513-1.007-3.395-3.376-10.411-4.571-13.897 2.912-.703 109.402.738 112.535 0l-11.651 56.665c-7.811 3.703-14.741 7.215-24.15 9.438-11.775 2.782-24.044 2.736-37.505-.137-3.409-.728-6.991.006-9.832 2.015-2.839 2.006-4.726 5.135-5.176 8.584-2.208 16.881-7.029 33.422-14.328 49.166-5.69 12.284-8.575 25.413-8.575 39.022 0 51.634 42.415 93.641 94.55 93.641s94.55-42.007 94.55-93.641c0-14.006-3.04-27.462-9.034-39.997-1.835-3.835-3.545-7.775-5.082-11.71-1.507-3.859-5.858-5.767-9.714-4.257-3.858 1.507-5.765 5.856-4.257 9.714 1.671 4.278 3.529 8.56 5.522 12.726 5.021 10.497 7.566 21.776 7.566 33.524 0 43.362-35.686 78.641-79.55 78.641s-79.55-35.278-79.55-78.641c0-11.417 2.417-22.424 7.184-32.715 7.557-16.299 12.673-33.4 15.224-50.871 14.516 2.763 28.449 2.607 41.453-.464 6.477-1.527 11.927-3.563 16.945-5.751l-21.063 102.436c-.834 4.058 1.778 8.022 5.835 8.857.51.104 1.018.155 1.519.155 3.485 0 6.609-2.443 7.338-5.991l23.283-113.237c6.112-2.595 12.718-4.782 21.296-5.935 4.796-.642 9.717-.888 14.656-.737.339 7.652 1.18 15.35 2.503 22.915.713 4.081 4.597 6.814 8.68 6.096 4.08-.713 6.81-4.6 6.096-8.68-1.335-7.634-2.133-15.414-2.373-23.121-.202-6.532-5.29-11.729-11.834-12.091-6.629-.365-13.265-.113-19.722.751-5.964.802-11.105 2.025-15.741 3.486l10.251-49.855h61.649l-1.818 5.321c-12.568 36.778-9.996 76.897 7.245 112.967 6.964 14.57 10.495 30.202 10.495 46.459 0 59.906-49.143 108.644-109.548 108.644-28.545 0-55.57-10.828-76.097-30.49-20.459-19.598-32.311-45.882-33.373-74.011-.156-4.139-3.61-7.343-7.778-7.212-4.139.157-7.368 3.639-7.211 7.778 1.209 32.041 14.7 61.971 37.986 84.277 17.849 17.097 40.018 28.309 63.97 32.639v81.729c0 1.332-.739 2.531-1.928 3.129l-43.644 21.937c-4.786 2.4-7.267 7.715-6.034 12.925s5.833 8.85 11.186 8.85h125.84c5.358 0 9.962-3.641 11.195-8.853 1.233-5.208-1.248-10.522-6.028-12.919l-43.651-21.936c-1.194-.602-1.936-1.803-1.936-3.133v-81.735c57.974-10.544 102.05-61.064 102.05-121.618zm-284.29-214.87 46.933 46.837.483 1.431-67.146-7.532c2.909-14.648 9.494-28.704 19.73-40.736zm-.011 116.493c-14.943-17.563-22.036-39.311-21.409-60.853l74.054 8.307zm56.44-81.37-45.811-45.717c12.062-10.218 26.152-16.79 40.835-19.69l7.364 65.408h-2.388zm25.08 0h-7.597l-7.553-67.09c21.58-.627 43.368 6.446 60.968 21.353zm126.387 414.941h-96.306l30.458-15.309c6.286-3.16 10.191-9.495 10.191-16.531v-79.94c2.489.147 4.99.229 7.502.229 2.518 0 5.016-.083 7.498-.23v79.941c0 7.028 3.902 13.36 10.192 16.531z"/></g></svg>