<?xml version="1.0" encoding="UTF-8" standalone="no"?>
<!DOCTYPE svg PUBLIC "-//W3C//DTD SVG 1.1//EN" "http://www.w3.org/Graphics/SVG/1.1/DTD/svg11.dtd">
<svg width="100%" height="100%" viewBox="0 0 512 512" version="1.1" xmlns="http://www.w3.org/2000/svg" xmlns:xlink="http://www.w3.org/1999/xlink" xml:space="preserve" xmlns:serif="http://www.serif.com/" style="fill-rule:evenodd;clip-rule:evenodd;stroke-linejoin:round;stroke-miterlimit:2;">
    <g>
        <path d="M134.907,171.292C133.237,172.959 130.499,172.92 128.903,171.182C93.712,132.865 94.709,73.311 131.893,36.197C169.077,-0.917 228.747,-1.912 267.138,33.212C268.879,34.804 268.919,37.537 267.249,39.205L134.907,171.292Z" style="fill:rgb(255,224,125);fill-rule:nonzero;"/>
        <path d="M267.138,33.212C244.514,12.513 214.501,4.371 186.054,8.759C204.568,11.606 222.421,19.742 237.144,33.212C238.884,34.804 238.924,37.537 237.255,39.205L118.547,157.683C121.561,162.401 124.996,166.928 128.903,171.181C130.499,172.919 133.237,172.958 134.907,171.291L267.248,39.205C268.919,37.537 268.879,34.804 267.138,33.212Z" style="fill:rgb(255,208,100);fill-rule:nonzero;"/>
        <path d="M356.537,496.929L312.89,474.994C309.175,473.127 306.83,469.325 306.83,465.167L306.83,363.401C306.83,355.325 300.625,348.377 292.558,347.997C283.946,347.591 276.836,354.454 276.836,362.977L276.836,465.167C276.836,469.324 274.492,473.126 270.776,474.994L227.129,496.929C223.363,498.821 224.71,504.501 228.925,504.501L354.739,504.501C358.958,504.501 360.304,498.822 356.537,496.929Z" style="fill:rgb(220,234,252);fill-rule:nonzero;"/>
        <path d="M390.724,104.871L393.691,96.187C394.789,92.976 392.401,89.637 389.008,89.637L192.431,89.637C189.046,89.637 186.659,92.96 187.742,96.168L191.826,108.278C203.469,142.799 200.801,180.319 185.47,213.369C178.627,228.123 174.808,244.545 174.808,261.853C174.808,325.985 227.202,377.975 291.834,377.975C356.466,377.975 408.86,325.986 408.86,261.853C408.86,244.074 404.832,227.23 397.633,212.168C381.563,178.547 378.673,140.134 390.724,104.871Z" style="fill:rgb(236,245,255);fill-rule:nonzero;"/>
        <path d="M397.633,212.168C381.563,178.547 378.673,140.134 390.724,104.871L393.691,96.187C394.789,92.976 392.401,89.637 389.008,89.637L359.014,89.637C362.407,89.637 364.795,92.976 363.697,96.187L360.729,104.871C348.679,140.134 351.569,178.547 367.639,212.168C374.838,227.229 378.866,244.074 378.866,261.853C378.866,320.944 334.385,369.724 276.837,377.029C281.747,377.653 286.753,377.975 291.834,377.975C356.466,377.975 408.86,325.986 408.86,261.853C408.86,244.074 404.832,227.23 397.633,212.168Z" style="fill:rgb(220,234,252);fill-rule:nonzero;"/>
        <path d="M353.35,155.066C353.269,152.461 351.201,150.377 348.6,150.233C342.815,149.913 336.684,150.073 330.294,150.928C305.529,154.257 295.751,165.495 274.425,170.524C264.247,172.928 250.771,174.08 233.636,170.422C230.778,169.811 228.011,171.76 227.632,174.658C225.345,192.15 220.349,209.445 212.676,225.994C207.457,237.262 204.798,249.319 204.798,261.857C204.798,309.348 243.84,347.981 291.831,347.981C339.822,347.981 378.865,309.348 378.865,261.857C378.865,248.979 376.075,236.622 370.567,225.104C359.849,202.699 354.091,178.894 353.35,155.066Z" style="fill:rgb(255,224,125);fill-rule:nonzero;"/>
        <path d="M239.545,171.517C237.624,171.213 235.659,170.854 233.637,170.422C231.492,169.964 229.399,170.946 228.327,172.691C232.387,172.534 236.123,172.111 239.545,171.517Z" style="fill:rgb(247,231,130);fill-rule:nonzero;"/>
        <path d="M370.568,225.104C359.85,202.699 354.092,178.894 353.351,155.066C353.27,152.461 351.202,150.377 348.601,150.233C342.816,149.913 336.685,150.073 330.295,150.928C327.494,151.305 324.891,151.787 322.435,152.345C322.984,153.118 323.324,154.05 323.356,155.066C324.096,178.894 329.855,202.699 340.573,225.104C346.082,236.622 348.872,248.979 348.872,261.857C348.872,304.288 317.703,339.644 276.835,346.697C281.709,347.538 286.719,347.981 291.832,347.981C339.823,347.981 378.866,309.348 378.866,261.857C378.866,248.98 376.076,236.622 370.568,225.104Z" style="fill:rgb(255,208,100);fill-rule:nonzero;"/>
        <path d="M416.359,261.853C416.359,243.342 412.336,225.538 404.399,208.935C388.865,176.434 386.528,140.342 397.817,107.306C400.13,100.538 403.77,93.838 399.132,87.353C396.798,84.088 393.007,82.14 388.991,82.14L326.89,82.14L331.879,57.876C332.648,54.139 334.809,50.901 337.965,48.759L389.469,13.799C392.895,11.474 393.788,6.811 391.463,3.384C389.137,-0.042 384.474,-0.935 381.048,1.391L329.542,36.35C323.135,40.699 318.749,47.271 317.19,54.856L311.58,82.14L234.845,82.14L272.533,44.519C274.782,42.283 276.033,39.181 275.967,36.005C275.901,32.841 274.526,29.804 272.198,27.678C230.539,-10.433 166.583,-9.021 126.594,30.892C126.591,30.895 126.589,30.898 126.586,30.9L126.581,30.905C86.597,70.828 85.189,134.67 123.398,176.276C125.529,178.581 128.559,179.941 131.707,180.006C131.788,180.008 131.868,180.008 131.949,180.008C135.024,180.008 138.019,178.777 140.209,176.6L189.201,127.7C194.48,155.112 190.9,183.842 178.667,210.212C175.774,216.449 173.395,222.968 171.596,229.589C170.51,233.585 172.87,237.705 176.866,238.791C180.863,239.875 184.982,237.517 186.068,233.521C187.646,227.714 189.733,221.995 192.272,216.522C207.913,182.806 210.79,145.557 200.551,111.029C199.545,107.635 197.176,100.62 195.981,97.135C198.893,96.432 305.363,97.873 308.495,97.135L296.846,153.789C289.037,157.491 282.108,161.003 272.701,163.225C260.928,166.007 248.661,165.961 235.203,163.088C231.795,162.361 228.213,163.094 225.373,165.103C222.534,167.109 220.648,170.237 220.198,173.685C217.99,190.563 213.17,207.101 205.872,222.842C200.183,235.124 197.299,248.25 197.299,261.857C197.299,313.481 239.706,355.48 291.831,355.48C343.957,355.48 386.364,313.481 386.364,261.857C386.364,247.854 383.324,234.4 377.331,221.867C375.497,218.033 373.787,214.094 372.25,210.16C370.743,206.301 366.393,204.394 362.538,205.903C358.681,207.41 356.774,211.758 358.282,215.616C359.953,219.893 361.81,224.174 363.803,228.339C368.823,238.834 371.367,250.111 371.367,261.857C371.367,305.211 335.688,340.483 291.832,340.483C247.977,340.483 212.297,305.212 212.297,261.857C212.297,250.442 214.714,239.437 219.48,229.148C227.035,212.852 232.15,195.754 234.701,178.287C249.214,181.049 263.145,180.893 276.146,177.823C282.622,176.296 288.071,174.26 293.088,172.073L272.029,274.49C271.195,278.547 273.807,282.51 277.863,283.345C278.373,283.449 278.881,283.5 279.382,283.5C282.866,283.5 285.989,281.057 286.718,277.51L309.997,164.294C316.108,161.7 322.712,159.513 331.289,158.36C336.084,157.718 341.004,157.472 345.942,157.623C346.281,165.274 347.122,172.971 348.445,180.534C349.158,184.614 353.041,187.347 357.123,186.629C361.202,185.916 363.932,182.03 363.218,177.951C361.883,170.318 361.085,162.54 360.845,154.834C360.643,148.303 355.556,143.107 349.014,142.745C342.386,142.38 335.751,142.632 329.295,143.496C323.332,144.298 318.192,145.521 313.557,146.981L323.806,97.136L385.444,97.136L383.626,102.456C371.06,139.227 373.632,179.338 390.87,215.402C397.832,229.969 401.363,245.598 401.363,261.852C401.363,321.747 352.229,370.476 291.835,370.476C263.296,370.476 236.276,359.65 215.753,339.991C195.297,320.397 183.448,294.118 182.386,265.994C182.23,261.856 178.776,258.653 174.609,258.783C170.471,258.94 167.243,262.422 167.4,266.56C168.608,298.595 182.097,328.519 205.378,350.821C223.224,367.915 245.389,379.125 269.336,383.454L269.336,465.168C269.336,466.5 268.598,467.698 267.409,468.296L223.773,490.229C218.988,492.629 216.507,497.943 217.74,503.152C218.973,508.361 223.572,512 228.924,512L354.74,512C360.097,512 364.701,508.36 365.933,503.149C367.166,497.942 364.686,492.629 359.907,490.232L316.264,468.3C315.07,467.698 314.328,466.498 314.328,465.168L314.328,383.448C372.291,372.906 416.359,322.396 416.359,261.853ZM132.122,47.023L179.046,93.851L179.529,95.282L112.396,87.752C115.304,73.106 121.888,59.053 132.122,47.023ZM132.111,163.494C117.171,145.935 110.079,124.191 110.706,102.653L184.746,110.958L132.111,163.494ZM188.541,82.14L142.738,36.431C154.798,26.215 168.885,19.644 183.566,16.745L190.928,82.141L188.541,82.141L188.541,82.14ZM213.616,82.14L206.02,82.14L198.469,15.062C220.045,14.435 241.829,21.507 259.425,36.411L213.616,82.14ZM339.979,497.003L243.691,497.003L274.144,481.697C280.428,478.537 284.333,472.203 284.333,465.169L284.333,385.244C286.821,385.391 289.322,385.473 291.833,385.473C294.351,385.473 296.848,385.39 299.33,385.243L299.33,465.169C299.33,472.195 303.231,478.526 309.52,481.697L339.979,497.003Z" style="fill:white;fill-rule:nonzero;"/>
    </g>
</svg>
